# xmcd
#
# Track frame offsets:
# 187
# 18857
# 38887
# 55180
# 68712
# 79952
# 99562
# 120105
# 134587
# 149867
#
# Disc length: 2213 seconds
#
#
# Revision: 2
# Processed by: cddbd v1.5.1PL0 Copyright (c) Steve Scherf et al.
# Submitted via: FreeRIP 2.92 
#
DISCID=8908a30a
DTITLE=The Judds - River Of Time
DYEAR=1989
DGENRE=Country
TTITLE0=One Man Woman
TTITLE1=Young Love
TTITLE2=Not My Baby
TTITLE3=Let Me Tell You About Love
TTITLE4=Sleepless Nights
TTITLE5=Water Of Love
TTITLE6=River Of Time
TTITLE7=Cadillac Red
TTITLE8=Do I Dare
TTITLE9=Guardian Angel
EXTD=
EXTT0=
EXTT1=
EXTT2=
EXTT3=
EXTT4=
EXTT5=
EXTT6=
EXTT7=
EXTT8=
EXTT9=
PLAYORDER=
